<svg id="Layer_1" data-name="Layer 1" xmlns="http://www.w3.org/2000/svg" viewBox="0 0 756.13 336.09"><defs><style>.cls-1{fill:#00afec;}</style></defs><title>kara_logo_0723</title><path class="cls-1" d="M624.29,252.74l-31.73-.47a2.41,2.41,0,0,0-2.1.84,3,3,0,0,0-.87,2.09v5.23a2.93,2.93,0,0,0,2.88,2.93l22.78.42v9.79q0,2.79-.21,5.39l-21.2-.42a3.21,3.21,0,0,0-2.11.84,2.94,2.94,0,0,0-.88,2.09v5.24a2.93,2.93,0,0,0,2.83,2.93l13.27.47c2.13,0,4.23,0,6.15-.07-3.63,13.41-10.93,21.1-23.86,25.39a2.93,2.93,0,0,0-1.86,3.7l.08.21L589.4,324a2.93,2.93,0,0,0,2.7,1.8,2.8,2.8,0,0,0,.8-.11c22.76-6.49,34.29-24,34.29-52.09v-17.9A2.93,2.93,0,0,0,624.29,252.74Z"/><path class="cls-1" d="M662.18,280.44h-8.47V253.55a2.93,2.93,0,0,0-2.93-2.93H644.7a2.93,2.93,0,0,0-2.93,2.93v74.32a2.93,2.93,0,0,0,2.93,2.93h6.08a2.93,2.93,0,0,0,2.93-2.93V291.7h8.47a2.93,2.93,0,0,0,2.93-2.93v-5.4A2.93,2.93,0,0,0,662.18,280.44Z"/><path class="cls-1" d="M719.31,310.11a37.35,37.35,0,0,1-13.91,2.42H692.56V293.65h19.89a2.93,2.93,0,0,0,2.93-2.93V255.67a2.93,2.93,0,0,0-2.93-2.93H683.56a2.93,2.93,0,0,0-2.93,2.93v5.24a2.93,2.93,0,0,0,2.93,2.89h19.89v18.72H683.56a2.93,2.93,0,0,0-2.93,2.93v35.21a2.93,2.93,0,0,0,2.93,2.93h19.78c7.35,0,13.82-1,18.23-2.87a2.93,2.93,0,0,0,1.79-2.7V312.8a2.93,2.93,0,0,0-4.07-2.7Z"/><path class="cls-1" d="M753.2,280.44h-8.47V253.55a2.93,2.93,0,0,0-2.93-2.93h-6.08a2.93,2.93,0,0,0-2.93,2.93h0v74.32a2.93,2.93,0,0,0,2.93,2.93h6.08a2.93,2.93,0,0,0,2.93-2.93h0V291.7h8.47a2.93,2.93,0,0,0,2.93-2.93h0v-5.4a2.93,2.93,0,0,0-2.93-2.93Z"/><path class="cls-1" d="M9.61,292.6c0-15.32,6.22-28.74,11.65-38.72a3.35,3.35,0,0,0-2.94-5H16.63a3.35,3.35,0,0,0-2.76,1.45C4.79,263.63,0,278.16,0,292.38s4.8,29,13.87,42.21A3.35,3.35,0,0,0,16.63,336H18.4a3.35,3.35,0,0,0,2.91-5C13.22,316.94,9.61,305.08,9.61,292.6Z"/><path class="cls-1" d="M122.27,250.39a3.35,3.35,0,0,0-2.76-1.45h-1.68a3.35,3.35,0,0,0-2.94,5c5.42,10,11.65,23.39,11.65,38.72,0,12.47-3.61,24.34-11.69,38.48a3.35,3.35,0,0,0,2.91,5h1.77a3.35,3.35,0,0,0,2.76-1.45c9.08-13.21,13.88-27.8,13.88-42.21C136.14,278.17,131.34,263.64,122.27,250.39Z"/><path class="cls-1" d="M103.85,281.93H93.42V252.8a1.14,1.14,0,0,0-1.13-1.13H86.12A1.14,1.14,0,0,0,85,252.8v75.38a1.14,1.14,0,0,0,1.13,1.13h6.17a1.14,1.14,0,0,0,1.13-1.13v-38.5h10.43a1.14,1.14,0,0,0,1.13-1.13v-5.48A1.14,1.14,0,0,0,103.85,281.93Z"/><path class="cls-1" d="M61.08,289.92a85.46,85.46,0,0,0,.73-13.1V255a1.14,1.14,0,0,0-1.13-1.13H54.25A1.14,1.14,0,0,0,53.12,255V276.8c0,19.06-6,31.64-19.29,40.78a1.14,1.14,0,0,0-.34,1.51l2.65,4.54a1.17,1.17,0,0,0,1.55.42,46.8,46.8,0,0,0,20.12-22.93c5,6.94,13.18,16.51,18.14,21.06a1.14,1.14,0,0,0,1.61-.07l0,0,3.6-4.28a1.14,1.14,0,0,0,0-1.51C73.79,308.58,64.82,297.5,61.08,289.92Z"/><path class="cls-1" d="M194.83,298.63c-18.14,0-28.55,6.07-28.55,16.64s10.41,16.64,28.55,16.64,28.54-6.06,28.54-16.64S213,298.63,194.83,298.63Zm20.11,16.64c0,8-14.06,8.89-20.11,8.89s-20.11-.87-20.11-8.89,14.06-8.89,20.11-8.89,20.11.87,20.11,8.89Z"/><path class="cls-1" d="M226.27,287.41H199.13v-5.52h22.25a1.14,1.14,0,0,0,1.18-1.09v-5.31a1.14,1.14,0,0,0-1.13-1.13H175.56V260.13h45.81A1.14,1.14,0,0,0,222.5,259v-5.31a1.14,1.14,0,0,0-1.13-1.13H168.28a1.14,1.14,0,0,0-1.13,1.13V280.8a1.14,1.14,0,0,0,1.13,1.13h22.28v5.52H163.39a1.14,1.14,0,0,0-1.13,1.13v5.31a1.14,1.14,0,0,0,1.13,1.13h62.87a1.14,1.14,0,0,0,1.13-1.13v-5.31a1.14,1.14,0,0,0-1.11-1.17Z"/><path class="cls-1" d="M252.75,278.55h52.76a1.14,1.14,0,0,0,1.13-1.13v-23.9a1.14,1.14,0,0,0-1.13-1.13H252.75a1.14,1.14,0,0,0-1.13,1.13v23.9A1.14,1.14,0,0,0,252.75,278.55ZM298.21,260v11H260.05V260Z"/><path class="cls-1" d="M310.56,282.7H247.69a1.14,1.14,0,0,0-1.13,1.1v5.31a1.14,1.14,0,0,0,1.13,1.13h27.13v4.84H252.56a1.14,1.14,0,0,0-1.13,1.13v5.22a1.14,1.14,0,0,0,1.13,1.13h45.81v6H252.56a1.14,1.14,0,0,0-1.13,1.13v18.59a1.14,1.14,0,0,0,1.13,1.13h54a1.14,1.14,0,0,0,1.13-1.13v-5.22a1.14,1.14,0,0,0-1.13-1.13H259.88v-6h45.81a1.14,1.14,0,0,0,1.13-1.13V296.26a1.14,1.14,0,0,0-1.13-1.13H283.43v-4.84h27.13a1.14,1.14,0,0,0,1.13-1.13V283.8A1.14,1.14,0,0,0,310.56,282.7Z"/><path class="cls-1" d="M364.69,295.66v5a1.14,1.14,0,0,0,1.13,1.13h18.56v7.86a1.14,1.14,0,0,0,1.18,1.1h6a1.14,1.14,0,0,0,1.13-1.13V252.8a1.14,1.14,0,0,0-1.13-1.13h-6a1.14,1.14,0,0,0-1.13,1.13v41.7H365.82a1.14,1.14,0,0,0-1.13,1.15Z"/><path class="cls-1" d="M393.32,321.8H347.26V304.91a1.14,1.14,0,0,0-1.13-1.13h-6.34a1.14,1.14,0,0,0-1.13,1.13v23.3a1.14,1.14,0,0,0,1.13,1.13h53.54a1.14,1.14,0,0,0,1.13-1.13V322.9A1.14,1.14,0,0,0,393.32,321.8Z"/><path class="cls-1" d="M346.87,302.34a1.14,1.14,0,0,0,1.13,1.13h6.17a1.14,1.14,0,0,0,1.13-1.13V290.2h9.57c8.38,0,12.91-.38,16-2.52a1.14,1.14,0,0,0,.49-.93v-4.28a1.13,1.13,0,0,0-.43-.89,1.16,1.16,0,0,0-1-.22,45.85,45.85,0,0,1-6.68,1.11c2-4,2.51-9.8,2.51-14.22V254.54a1.14,1.14,0,0,0-1.13-1.13h-39a1.14,1.14,0,0,0-1.13,1.13v5.31a1.14,1.14,0,0,0,1.13,1.13H367.3v9.66a30.91,30.91,0,0,1-2.19,12.06h-32.7a1.14,1.14,0,0,0-1.13,1.13v5.23a1.14,1.14,0,0,0,1.13,1.13h14.46Z"/><path class="cls-1" d="M449.86,297.52c-18.68,0-29,6-29,17s10.29,16.89,29,16.89,29.06-6,29.06-16.89S468.56,297.52,449.86,297.52Zm20.62,17c0,6.15-6.75,9.14-20.62,9.14s-20.54-3-20.54-9.14,6.72-9.23,20.54-9.23,20.62,3,20.62,9.21Z"/><path class="cls-1" d="M451.34,281.61c0-8.67-7.31-14.5-18.18-14.5S415,272.94,415,281.61,422.29,296,433.16,296,451.34,290.23,451.34,281.61Zm-28.1,0c0-5.1,5.12-6.92,9.91-6.92s9.92,1.82,9.92,6.92-5.12,6.83-9.92,6.83-9.91-1.79-9.91-6.83Z"/><path class="cls-1" d="M455.35,296.36h6.08a1.14,1.14,0,0,0,1.13-1.13V277.52h6.72v19.42a1.14,1.14,0,0,0,1.13,1.13h6.08a1.14,1.14,0,0,0,1.13-1.13V252.8a1.14,1.14,0,0,0-1.13-1.13h-6.08a1.14,1.14,0,0,0-1.13,1.13v17.11h-6.72V252.8a1.14,1.14,0,0,0-1.13-1.13h-6.08a1.14,1.14,0,0,0-1.13,1.13v42.4a1.14,1.14,0,0,0,1.12,1.16Z"/><path class="cls-1" d="M451.15,265.61a1.14,1.14,0,0,0,1.13-1.13v-5.14a1.14,1.14,0,0,0-1.13-1.13H437.46V251a1.14,1.14,0,0,0-1.13-1.13H430a1.14,1.14,0,0,0-1.13,1.13v7.17H415.17a1.14,1.14,0,0,0-1.13,1.13v5.14a1.14,1.14,0,0,0,1.13,1.13Z"/><path class="cls-1" d="M531.85,298.63c-18.14,0-28.55,6.07-28.55,16.64s10.41,16.64,28.55,16.64,28.55-6.06,28.55-16.64S550,298.63,531.85,298.63ZM552,315.27c0,8-14.06,8.89-20.11,8.89s-20.11-.87-20.11-8.89,14.06-8.89,20.11-8.89,20.11.87,20.11,8.89Z"/><path class="cls-1" d="M563.28,287.41H536.15v-5.52H558.4a1.14,1.14,0,0,0,1.16-1.09v-5.31a1.14,1.14,0,0,0-1.13-1.13H512.56V260.13h45.81A1.14,1.14,0,0,0,559.5,259v-5.31a1.14,1.14,0,0,0-1.13-1.13H505.29a1.14,1.14,0,0,0-1.13,1.13V280.8a1.14,1.14,0,0,0,1.13,1.13h22.27v5.52H500.41a1.14,1.14,0,0,0-1.13,1.13v5.31a1.14,1.14,0,0,0,1.13,1.13h62.87a1.14,1.14,0,0,0,1.13-1.13v-5.31a1.14,1.14,0,0,0-1.11-1.17Z"/><path class="cls-1" d="M150.71,10.8c3.19-5.59.4-10.79-6-10.79H130.33c-5.57,0-10,2.41-13.16,8.39L72.71,68.7c-4,7.16-9.83,11.11-18.11,11.16h-.25c-8.29,0-13.9-4.41-13.9-11.16V8.8c0-5.6-3.21-8.8-8.8-8.8H18.47c-5.6,0-8.8,3.2-8.8,8.8V176.51c0,5.6,3.21,8.8,8.8,8.8H31.64c5.59,0,8.8-3.2,8.8-8.8v-59.9c0-6.76,5.61-11.1,13.9-11.16h.22c8.28.06,14.12,4,18.11,11.16l44.46,60.3c3.21,6,7.59,8.4,13.16,8.4h14.38c6.4,0,9.19-5.2,6-10.79L94.56,98.4a15.32,15.32,0,0,1-2-5.73,15.21,15.21,0,0,1,2-5.72Z"/><path class="cls-1" d="M334.31,63.8H334c-1.27-33.29-27.11-62.21-65.65-62.21A90,90,0,0,0,223.22,13.2c-3.59,2-7.19,6.77-4.39,12L224,34.36c2.8,4.8,6,6.8,11.19,4A68.28,68.28,0,0,1,268.35,30c22.25,0,35,18.21,35.13,36.12-.07,5.51-3.23,8.66-8.77,8.66H259s-9.81-.42-24.39,5.66c-16.09,6.72-32.11,24.68-32.11,47,0,35.54,28.33,56.71,65.89,56.71l36.91.06c1.47,2,3.91,3.09,7.16,3.09h13.14c5.6,0,8.7-3.19,8.7-8.79Zm-30.82,83.7s0,3.81-2.3,6.13-6.8,2-6.8,2l-26,.17c-18.79,0-35.15-9.19-35.15-28.35,0-22.36,24.75-26.35,35.15-26.35h26.34c5.57,0,8.79,3.19,8.79,8.77Z"/><path class="cls-1" d="M740.35,63.8H740c-1.27-33.29-27.09-62.21-65.66-62.21A90,90,0,0,0,629.23,13.2c-3.59,2-7.17,6.77-4.37,12L630,34.36c2.8,4.8,6,6.8,11.18,4A68.31,68.31,0,0,1,674.35,30c22.27,0,35,18.21,35.13,36.12-.07,5.51-3.23,8.66-8.75,8.66H665s-9.81-.42-24.38,5.66c-16.08,6.72-32.1,24.68-32.1,47,0,35.54,28.33,56.71,65.88,56.71l36.91.06c1.48,2,3.92,3.09,7.17,3.09h13.19c5.59,0,8.71-3.19,8.71-8.79Zm-30.84,83.7s0,3.81-2.27,6.13-6.82,2-6.82,2l-26,.17c-18.77,0-35.14-9.19-35.14-28.35,0-22.36,24.76-26.35,35.14-26.35h26.35c5.59,0,8.78,3.19,8.78,8.77Z"/><path class="cls-1" d="M552.67,174.52,508,114.14c-2-2.82-2.42-4.23-2.66-6,0-3,.7-4.2,2.66-5.48,0,0,9.53-3.87,12.61-5.17s10.66-6.31,10.66-6.31C536.39,87.25,549,77.79,549,55.74,549,20.69,521-.2,484-.2H438.37s-9.84-1.65-15.16,3.69S419,19.43,419,19.43V177.08c0,5.5,3.15,8.66,8.67,8.66h13c5.52,0,8.67-3.16,8.67-8.66V116.43c0-5.53,3.15-8.68,8.66-8.68h4.53s4,.4,5.79,1.7a37.49,37.49,0,0,1,4.73,4.59l46.06,62.88c3.2,6,7.6,8.4,13.18,8.4h14.37C553.09,185.31,555.87,180.11,552.67,174.52ZM458,80.24c-5.51,0-8.66-3.15-8.66-8.66V26.4H484c18.51,0,34.67,8.94,34.67,27.84,0,22-24.43,26-34.67,26Z"/></svg>